<svg width="50" height="50" viewBox="0 0 50 50" fill="none" xmlns="http://www.w3.org/2000/svg">
<g clip-path="url(#clip0_2787_219)">
<path d="M40.627 20.3095C40.627 24.7913 39.1717 28.9312 36.7205 32.2902L49.0845 44.6615C50.3053 45.882 50.3053 47.864 49.0845 49.0845C47.8638 50.3053 45.8813 50.3053 44.6605 49.0845L32.2965 36.7132C28.937 39.174 24.7961 40.619 20.3135 40.619C9.09225 40.619 0 31.5285 0 20.3095C0 9.09047 9.09225 0 20.3135 0C31.5347 0 40.627 9.09047 40.627 20.3095ZM20.3135 34.37C22.1603 34.37 23.989 34.0062 25.6953 33.2997C27.4015 32.593 28.9517 31.5575 30.2577 30.2518C31.5635 28.946 32.5995 27.396 33.3063 25.6903C34.013 23.9843 34.3767 22.156 34.3767 20.3095C34.3767 18.4631 34.013 16.6347 33.3063 14.9288C32.5995 13.2229 31.5635 11.6729 30.2577 10.3673C28.9517 9.06165 27.4015 8.02598 25.6953 7.31938C23.989 6.61278 22.1603 6.24907 20.3135 6.24907C18.4667 6.24907 16.638 6.61278 14.9318 7.31938C13.2255 8.02598 11.6752 9.06165 10.3693 10.3673C9.06342 11.6729 8.02755 13.2229 7.3208 14.9288C6.61405 16.6347 6.2503 18.4631 6.2503 20.3095C6.2503 22.156 6.61405 23.9843 7.3208 25.6903C8.02755 27.396 9.06342 28.946 10.3693 30.2518C11.6752 31.5575 13.2255 32.593 14.9318 33.2997C16.638 34.0062 18.4667 34.37 20.3135 34.37Z" fill="#0054A2"/>
</g>
<defs>
<clipPath id="clip0_2787_219">
<rect width="50" height="50" fill="white"/>
</clipPath>
</defs>
</svg>
