<svg width="38" height="33" viewBox="0 0 38 33" fill="none" xmlns="http://www.w3.org/2000/svg">
<path d="M38 8.25V29.4643C38 31.4163 36.4043 33 34.4375 33H3.5625C1.5957 33 0 31.4163 0 29.4643V8.25C0 6.29799 1.5957 4.71429 3.5625 4.71429H10.0938L11.0066 2.29085C11.5262 0.913393 12.8547 0 14.3391 0H23.6535C25.1379 0 26.4664 0.913393 26.9859 2.29085L27.9062 4.71429H34.4375C36.4043 4.71429 38 6.29799 38 8.25ZM27.9062 18.8571C27.9062 13.9808 23.9133 10.0179 19 10.0179C14.0867 10.0179 10.0938 13.9808 10.0938 18.8571C10.0938 23.7335 14.0867 27.6964 19 27.6964C23.9133 27.6964 27.9062 23.7335 27.9062 18.8571ZM25.5312 18.8571C25.5312 22.4297 22.5996 25.3393 19 25.3393C15.4004 25.3393 12.4688 22.4297 12.4688 18.8571C12.4688 15.2846 15.4004 12.375 19 12.375C22.5996 12.375 25.5312 15.2846 25.5312 18.8571Z" fill="#13C7EB"/>
</svg>
