<svg width="19" height="21" viewBox="0 0 19 21" fill="none" xmlns="http://www.w3.org/2000/svg">
<path d="M9.5 10.5C10.9397 10.5 12.3205 9.94688 13.3386 8.96231C14.3566 7.97774 14.9286 6.64239 14.9286 5.25C14.9286 3.85761 14.3566 2.52226 13.3386 1.53769C12.3205 0.553124 10.9397 0 9.5 0C8.06025 0 6.67947 0.553124 5.66142 1.53769C4.64337 2.52226 4.07143 3.85761 4.07143 5.25C4.07143 6.64239 4.64337 7.97774 5.66142 8.96231C6.67947 9.94688 8.06025 10.5 9.5 10.5ZM5.42857 12.7641C2.29018 13.6541 0 16.4596 0 19.7818C0 20.4545 0.564063 21 1.2596 21H17.7404C18.4359 21 19 20.4545 19 19.7818C19 16.4596 16.7098 13.6541 13.5714 12.7641V14.8477C14.742 15.1389 15.6071 16.1684 15.6071 17.3906V19.0312C15.6071 19.3922 15.3018 19.6875 14.9286 19.6875H14.25C13.8768 19.6875 13.5714 19.3922 13.5714 19.0312C13.5714 18.6703 13.8768 18.375 14.25 18.375V17.3906C14.25 16.6646 13.6435 16.0781 12.8929 16.0781C12.1422 16.0781 11.5357 16.6646 11.5357 17.3906V18.375C11.9089 18.375 12.2143 18.6703 12.2143 19.0312C12.2143 19.3922 11.9089 19.6875 11.5357 19.6875H10.8571C10.4839 19.6875 10.1786 19.3922 10.1786 19.0312V17.3906C10.1786 16.1684 11.0437 15.1389 12.2143 14.8477V12.5057C11.9598 12.4811 11.7011 12.4688 11.4382 12.4688H7.56183C7.29888 12.4688 7.04018 12.4811 6.78571 12.5057V15.1881C7.7654 15.4711 8.48214 16.3488 8.48214 17.3906C8.48214 18.658 7.41763 19.6875 6.10714 19.6875C4.79665 19.6875 3.73214 18.658 3.73214 17.3906C3.73214 16.3488 4.44888 15.4711 5.42857 15.1881V12.7641ZM6.10714 18.375C6.3771 18.375 6.63599 18.2713 6.82688 18.0867C7.01776 17.9021 7.125 17.6517 7.125 17.3906C7.125 17.1296 7.01776 16.8792 6.82688 16.6946C6.63599 16.51 6.3771 16.4062 6.10714 16.4062C5.83719 16.4062 5.57829 16.51 5.38741 16.6946C5.19652 16.8792 5.08929 17.1296 5.08929 17.3906C5.08929 17.6517 5.19652 17.9021 5.38741 18.0867C5.57829 18.2713 5.83719 18.375 6.10714 18.375Z" fill="#7C7979"/>
</svg>
