<svg width="26" height="19" viewBox="0 0 26 19" fill="none" xmlns="http://www.w3.org/2000/svg">
<path d="M4.55 0.846069C3.47344 0.846069 2.6 1.56989 2.6 2.46205V4.07803H0.65C0.2925 4.07803 0 4.32043 0 4.61669C0 4.91295 0.2925 5.15535 0.65 5.15535H2.6H11.05C11.4075 5.15535 11.7 5.39775 11.7 5.69401C11.7 5.99027 11.4075 6.23267 11.05 6.23267H2.6H1.95C1.5925 6.23267 1.3 6.47507 1.3 6.77133C1.3 7.06759 1.5925 7.30999 1.95 7.30999H2.6H9.75C10.1075 7.30999 10.4 7.55239 10.4 7.84865C10.4 8.14491 10.1075 8.38731 9.75 8.38731H2.6H0.65C0.2925 8.38731 0 8.62971 0 8.92597C0 9.22223 0.2925 9.46463 0.65 9.46463H2.6H8.45C8.8075 9.46463 9.1 9.70703 9.1 10.0033C9.1 10.2996 8.8075 10.542 8.45 10.542H2.6V14.8512C2.6 16.6355 4.34687 18.0832 6.5 18.0832C8.65312 18.0832 10.4 16.6355 10.4 14.8512H15.6C15.6 16.6355 17.3469 18.0832 19.5 18.0832C21.6531 18.0832 23.4 16.6355 23.4 14.8512H24.7C25.4191 14.8512 26 14.3698 26 13.7739C26 13.178 25.4191 12.6966 24.7 12.6966V10.542V9.46463V8.83507C24.7 8.26275 24.4278 7.71399 23.9403 7.30999L20.8 4.70759C20.3125 4.30359 19.6503 4.07803 18.9597 4.07803H16.9V2.46205C16.9 1.56989 16.0266 0.846069 14.95 0.846069H4.55ZM22.1 8.83507V9.46463H16.9V6.23267H18.9597L22.1 8.83507ZM6.5 13.2353C7.01717 13.2353 7.51316 13.4055 7.87886 13.7086C8.24455 14.0116 8.45 14.4226 8.45 14.8512C8.45 15.2798 8.24455 15.6908 7.87886 15.9939C7.51316 16.297 7.01717 16.4672 6.5 16.4672C5.98283 16.4672 5.48684 16.297 5.12114 15.9939C4.75545 15.6908 4.55 15.2798 4.55 14.8512C4.55 14.4226 4.75545 14.0116 5.12114 13.7086C5.48684 13.4055 5.98283 13.2353 6.5 13.2353ZM17.55 14.8512C17.55 14.4226 17.7554 14.0116 18.1211 13.7086C18.4868 13.4055 18.9828 13.2353 19.5 13.2353C20.0172 13.2353 20.5132 13.4055 20.8789 13.7086C21.2446 14.0116 21.45 14.4226 21.45 14.8512C21.45 15.2798 21.2446 15.6908 20.8789 15.9939C20.5132 16.297 20.0172 16.4672 19.5 16.4672C18.9828 16.4672 18.4868 16.297 18.1211 15.9939C17.7554 15.6908 17.55 15.2798 17.55 14.8512Z" fill="black"/>
</svg>
