<svg width="14" height="25" viewBox="0 0 14 25" fill="none" xmlns="http://www.w3.org/2000/svg">
<path d="M3.18182 4.6875V12.5C3.18182 15.0879 4.89205 17.1875 7 17.1875C9.10795 17.1875 10.8182 15.0879 10.8182 12.5H7.63636C7.28636 12.5 7 12.1484 7 11.7188C7 11.2891 7.28636 10.9375 7.63636 10.9375H10.8182V9.375H7.63636C7.28636 9.375 7 9.02344 7 8.59375C7 8.16406 7.28636 7.8125 7.63636 7.8125H10.8182V6.25H7.63636C7.28636 6.25 7 5.89844 7 5.46875C7 5.03906 7.28636 4.6875 7.63636 4.6875H10.8182C10.8182 2.09961 9.10795 0 7 0C4.89205 0 3.18182 2.09961 3.18182 4.6875ZM12.0909 11.7188V12.5C12.0909 15.9521 9.81193 18.75 7 18.75C4.18807 18.75 1.90909 15.9521 1.90909 12.5V10.5469C1.90909 9.89746 1.48352 9.375 0.954545 9.375C0.425568 9.375 0 9.89746 0 10.5469V12.5C0 16.8506 2.63295 20.4443 6.04545 21.0156V22.6562H4.13636C3.60739 22.6562 3.18182 23.1787 3.18182 23.8281C3.18182 24.4775 3.60739 25 4.13636 25H7H9.86364C10.3926 25 10.8182 24.4775 10.8182 23.8281C10.8182 23.1787 10.3926 22.6562 9.86364 22.6562H7.95455V21.0156C11.367 20.4443 14 16.8506 14 12.5V10.5469C14 9.89746 13.5744 9.375 13.0455 9.375C12.5165 9.375 12.0909 9.89746 12.0909 10.5469V11.7188Z" fill="#0054A2"/>
</svg>
