<svg width="25" height="27" viewBox="0 0 25 27" fill="none" xmlns="http://www.w3.org/2000/svg">
<path d="M12.5 0C12.7396 0 12.9792 0.0524301 13.1979 0.152047L23.0052 4.34122C24.151 4.82881 25.0052 5.96655 25 7.34022C24.9739 12.5413 22.8489 22.0574 13.875 26.3828C13.0052 26.8023 11.9948 26.8023 11.125 26.3828C2.15106 22.0574 0.0260653 12.5413 2.369e-05 7.34022C-0.00518463 5.96655 0.84898 4.82881 1.99481 4.34122L11.8073 0.152047C12.0208 0.0524301 12.2604 0 12.5 0ZM12.5 3.50233V23.3209C19.6875 19.8186 21.6198 12.0642 21.6666 7.41362L12.5 3.50233Z" fill="#7C7979"/>
</svg>
