<svg width="22" height="22" viewBox="0 0 22 22" fill="none" xmlns="http://www.w3.org/2000/svg">
<path d="M17.2857 9.42857C19.8884 9.42857 22 7.31696 22 4.71429C22 2.11161 19.8884 0 17.2857 0C14.683 0 12.5714 2.11161 12.5714 4.71429C12.5714 4.91071 12.5813 5.10714 12.6058 5.29866L7.98482 7.6067C7.14018 6.78661 5.98616 6.28571 4.71429 6.28571C2.11161 6.28571 0 8.39732 0 11C0 13.6027 2.11161 15.7143 4.71429 15.7143C5.98616 15.7143 7.14018 15.2134 7.98482 14.3933L12.6058 16.7013C12.5813 16.8929 12.5714 17.0844 12.5714 17.2857C12.5714 19.8884 14.683 22 17.2857 22C19.8884 22 22 19.8884 22 17.2857C22 14.683 19.8884 12.5714 17.2857 12.5714C16.0138 12.5714 14.8598 13.0723 14.0152 13.8924L9.3942 11.5844C9.41875 11.3929 9.42857 11.2013 9.42857 11C9.42857 10.7987 9.41875 10.6071 9.3942 10.4156L14.0152 8.10759C14.8598 8.92768 16.0138 9.42857 17.2857 9.42857Z" fill="#B4B4B4"/>
</svg>
